<svg width="129" height="129" viewBox="0 0 129 129" xmlns="http://www.w3.org/2000/svg">
    <path
        d="M129 64.5C129 100.122 100.122 129 64.5 129C28.8776 129 0 100.122 0 64.5C0 28.8776 28.8776 0 64.5 0C100.122 0 129 28.8776 129 64.5ZM6.45 64.5C6.45 96.5601 32.4399 122.55 64.5 122.55C96.5601 122.55 122.55 96.5601 122.55 64.5C122.55 32.4399 96.5601 6.45 64.5 6.45C32.4399 6.45 6.45 32.4399 6.45 64.5Z"
        fill="#D9D9D9" />
    <g clip-path="url(#clip0_31_1301)">
        <path
            d="M18.8916 18.8916C29.7511 8.03214 44.1291 1.40381 59.4394 0.198856C74.7497 -1.00609 89.9875 3.29143 102.412 12.3184C114.837 21.3454 123.633 34.5095 127.218 49.4428C130.803 64.3761 128.942 80.0986 121.97 93.7824C114.998 107.466 103.372 118.213 89.1831 124.09C74.9945 129.967 59.1744 130.589 44.5684 125.843C29.9624 121.097 17.5291 111.296 9.50471 98.2012C1.48036 85.1066 -1.60836 69.5786 0.794101 54.41L7.16469 55.419C5.00247 69.0707 7.78233 83.046 15.0042 94.8311C22.2262 106.616 33.4162 115.438 46.5616 119.709C59.707 123.98 73.945 123.421 86.7148 118.131C99.4845 112.842 109.948 103.17 116.223 90.8542C122.498 78.5388 124.173 64.3885 120.946 50.9485C117.719 37.5085 109.803 25.6609 98.6209 17.5366C87.4388 9.41229 73.7247 5.54452 59.9454 6.62898C46.1662 7.71342 33.226 13.6789 23.4524 23.4525L18.8916 18.8916Z"
            fill="#1D4ED8" />
    </g>
    <path
        d="M41.9971 53.6572V75H37.4121V58.8721L32.4609 60.3809V56.8359L41.543 53.6572H41.9971ZM63.2812 62.4316V66.2256C63.2812 67.7881 63.1055 69.1406 62.7539 70.2832C62.4121 71.4258 61.9141 72.3682 61.2598 73.1104C60.6152 73.8525 59.8438 74.4043 58.9453 74.7656C58.0566 75.1172 57.0703 75.293 55.9863 75.293C55.1172 75.293 54.3066 75.1807 53.5547 74.9561C52.8027 74.7314 52.124 74.3848 51.5186 73.916C50.9229 73.4375 50.4102 72.8418 49.9805 72.1289C49.5508 71.416 49.2188 70.5664 48.9844 69.5801C48.7598 68.5938 48.6475 67.4756 48.6475 66.2256V62.4316C48.6475 60.8496 48.8184 59.4922 49.1602 58.3594C49.5117 57.2266 50.0146 56.2891 50.6689 55.5469C51.3232 54.8047 52.0947 54.2578 52.9834 53.9062C53.8818 53.5547 54.873 53.3789 55.957 53.3789C56.8262 53.3789 57.6318 53.4912 58.374 53.7158C59.126 53.9404 59.8047 54.2871 60.4102 54.7559C61.0156 55.2246 61.5283 55.8154 61.9482 56.5283C62.3779 57.2412 62.7051 58.0908 62.9297 59.0771C63.1641 60.0537 63.2812 61.1719 63.2812 62.4316ZM58.7109 66.7969V61.8311C58.7109 61.0986 58.667 60.4639 58.5791 59.9268C58.501 59.3799 58.3838 58.916 58.2275 58.5352C58.0811 58.1543 57.8955 57.8467 57.6709 57.6123C57.4463 57.3779 57.1875 57.207 56.8945 57.0996C56.6113 56.9824 56.2988 56.9238 55.957 56.9238C55.5273 56.9238 55.1416 57.0117 54.7998 57.1875C54.458 57.3633 54.1699 57.6416 53.9355 58.0225C53.7012 58.3936 53.5205 58.8965 53.3936 59.5312C53.2764 60.1562 53.2178 60.9229 53.2178 61.8311V66.7969C53.2178 67.5293 53.2568 68.1689 53.335 68.7158C53.4229 69.2627 53.54 69.7314 53.6865 70.1221C53.8428 70.5029 54.0332 70.8154 54.2578 71.0596C54.4824 71.2939 54.7412 71.4648 55.0342 71.5723C55.3271 71.6797 55.6445 71.7334 55.9863 71.7334C56.416 71.7334 56.7969 71.6504 57.1289 71.4844C57.4609 71.3086 57.7441 71.0303 57.9785 70.6494C58.2227 70.2588 58.4033 69.7461 58.5205 69.1113C58.6475 68.4766 58.7109 67.7051 58.7109 66.7969ZM80.5957 62.4316V66.2256C80.5957 67.7881 80.4199 69.1406 80.0684 70.2832C79.7266 71.4258 79.2285 72.3682 78.5742 73.1104C77.9297 73.8525 77.1582 74.4043 76.2598 74.7656C75.3711 75.1172 74.3848 75.293 73.3008 75.293C72.4316 75.293 71.6211 75.1807 70.8691 74.9561C70.1172 74.7314 69.4385 74.3848 68.833 73.916C68.2373 73.4375 67.7246 72.8418 67.2949 72.1289C66.8652 71.416 66.5332 70.5664 66.2988 69.5801C66.0742 68.5938 65.9619 67.4756 65.9619 66.2256V62.4316C65.9619 60.8496 66.1328 59.4922 66.4746 58.3594C66.8262 57.2266 67.3291 56.2891 67.9834 55.5469C68.6377 54.8047 69.4092 54.2578 70.2979 53.9062C71.1963 53.5547 72.1875 53.3789 73.2715 53.3789C74.1406 53.3789 74.9463 53.4912 75.6885 53.7158C76.4404 53.9404 77.1191 54.2871 77.7246 54.7559C78.3301 55.2246 78.8428 55.8154 79.2627 56.5283C79.6924 57.2412 80.0195 58.0908 80.2441 59.0771C80.4785 60.0537 80.5957 61.1719 80.5957 62.4316ZM76.0254 66.7969V61.8311C76.0254 61.0986 75.9814 60.4639 75.8936 59.9268C75.8154 59.3799 75.6982 58.916 75.542 58.5352C75.3955 58.1543 75.21 57.8467 74.9854 57.6123C74.7607 57.3779 74.502 57.207 74.209 57.0996C73.9258 56.9824 73.6133 56.9238 73.2715 56.9238C72.8418 56.9238 72.4561 57.0117 72.1143 57.1875C71.7725 57.3633 71.4844 57.6416 71.25 58.0225C71.0156 58.3936 70.835 58.8965 70.708 59.5312C70.5908 60.1562 70.5322 60.9229 70.5322 61.8311V66.7969C70.5322 67.5293 70.5713 68.1689 70.6494 68.7158C70.7373 69.2627 70.8545 69.7314 71.001 70.1221C71.1572 70.5029 71.3477 70.8154 71.5723 71.0596C71.7969 71.2939 72.0557 71.4648 72.3486 71.5723C72.6416 71.6797 72.959 71.7334 73.3008 71.7334C73.7305 71.7334 74.1113 71.6504 74.4434 71.4844C74.7754 71.3086 75.0586 71.0303 75.293 70.6494C75.5371 70.2588 75.7178 69.7461 75.835 69.1113C75.9619 68.4766 76.0254 67.7051 76.0254 66.7969ZM83.3057 58.9014V57.7734C83.3057 56.9629 83.4814 56.2256 83.833 55.5615C84.1846 54.8975 84.707 54.3652 85.4004 53.9648C86.1035 53.5645 86.9629 53.3643 87.9785 53.3643C89.0332 53.3643 89.9072 53.5645 90.6006 53.9648C91.2939 54.3652 91.8115 54.8975 92.1533 55.5615C92.5049 56.2256 92.6807 56.9629 92.6807 57.7734V58.9014C92.6807 59.6924 92.5049 60.4199 92.1533 61.084C91.8115 61.748 91.2939 62.2803 90.6006 62.6807C89.917 63.0811 89.0576 63.2812 88.0225 63.2812C86.9873 63.2812 86.1182 63.0811 85.415 62.6807C84.7217 62.2803 84.1943 61.748 83.833 61.084C83.4814 60.4199 83.3057 59.6924 83.3057 58.9014ZM86.2939 57.7734V58.9014C86.2939 59.2236 86.3574 59.5264 86.4844 59.8096C86.6113 60.0928 86.8018 60.3223 87.0557 60.498C87.3096 60.6738 87.627 60.7617 88.0078 60.7617C88.3984 60.7617 88.7158 60.6738 88.96 60.498C89.2041 60.3223 89.3848 60.0928 89.502 59.8096C89.6289 59.5264 89.6924 59.2236 89.6924 58.9014V57.7734C89.6924 57.4414 89.6289 57.1338 89.502 56.8506C89.3848 56.5576 89.1992 56.3232 88.9453 56.1475C88.6914 55.9717 88.3691 55.8838 87.9785 55.8838C87.6074 55.8838 87.2949 55.9717 87.041 56.1475C86.7969 56.3232 86.6113 56.5576 86.4844 56.8506C86.3574 57.1338 86.2939 57.4414 86.2939 57.7734ZM93.4717 70.8984V69.7705C93.4717 68.9697 93.6475 68.2373 93.999 67.5732C94.3604 66.9092 94.8877 66.377 95.5811 65.9766C96.2842 65.5762 97.1484 65.376 98.1738 65.376C99.2188 65.376 100.088 65.5762 100.781 65.9766C101.475 66.377 101.992 66.9092 102.334 67.5732C102.686 68.2373 102.861 68.9697 102.861 69.7705V70.8984C102.861 71.6992 102.686 72.4316 102.334 73.0957C101.992 73.7598 101.475 74.292 100.781 74.6924C100.098 75.0928 99.2432 75.293 98.2178 75.293C97.1729 75.293 96.2988 75.0928 95.5957 74.6924C94.8926 74.292 94.3604 73.7598 93.999 73.0957C93.6475 72.4316 93.4717 71.6992 93.4717 70.8984ZM96.4746 69.7705V70.8984C96.4746 71.2305 96.5479 71.5381 96.6943 71.8213C96.8408 72.1045 97.0459 72.334 97.3096 72.5098C97.5732 72.6855 97.8711 72.7734 98.2031 72.7734C98.6621 72.7734 99.0088 72.6855 99.2432 72.5098C99.4873 72.334 99.6533 72.1045 99.7412 71.8213C99.8291 71.5381 99.873 71.2305 99.873 70.8984V69.7705C99.873 69.4385 99.8096 69.1309 99.6826 68.8477C99.5654 68.5645 99.3799 68.335 99.126 68.1592C98.8721 67.9834 98.5547 67.8955 98.1738 67.8955C97.793 67.8955 97.4756 67.9834 97.2217 68.1592C96.9678 68.335 96.7773 68.5645 96.6504 68.8477C96.5332 69.1309 96.4746 69.4385 96.4746 69.7705ZM99.3164 56.7334L88.9014 73.4033L86.7188 72.2754L97.1338 55.6055L99.3164 56.7334Z"
        fill="#171717" />
    <defs>
        <clipPath id="clip0_31_1301">
            <rect width="129" height="129" fill="white" />
        </clipPath>
    </defs>
</svg>
    