<svg width="149" height="149" viewBox="0 0 149 149" fill="" xmlns="http://www.w3.org/2000/svg">
    <g clip-path="url(#clip0_31_1328)">
        <g clip-path="url(#clip1_31_1328)">
            <path
                d="M111.35 106.973H104.159C104.159 106.436 104.159 105.921 104.159 105.41C104.159 101.445 104.163 97.476 104.159 93.5114C104.155 91.6171 103.814 91.1876 101.985 91.0459C98.3571 90.7624 94.781 91.106 91.3214 92.2829C88.6857 93.1807 86.6885 94.7957 85.2434 97.2527C79.6873 106.672 74.0148 116.019 68.4329 125.426C67.8936 126.337 67.3286 126.698 66.2717 126.642C64.5031 126.552 62.7258 126.616 60.6941 126.616C61.078 125.899 61.3541 125.349 61.6603 124.812C69.4595 111.122 77.2803 97.4417 85.032 83.7222C85.6316 82.657 85.9293 81.3297 86.0285 80.1012C86.2528 77.2706 86.2701 74.427 86.3607 71.5878C86.4685 68.1472 85.8689 67.7133 82.6897 68.8903C76.8489 71.0508 71.0082 73.2157 65.1588 75.3505C64.2572 75.6813 63.3168 75.9905 62.3721 76.1065C60.3878 76.347 59.085 75.488 58.658 73.8257C58.1619 71.9013 58.9168 70.1832 60.7156 69.4615C65.0984 67.7004 69.507 65.9995 73.907 64.2727C77.1552 62.997 80.3646 61.6053 83.6603 60.4713C88.6858 58.7403 92.8269 55.566 97.0759 52.5807C98.4089 51.6443 99.4053 50.2182 100.527 48.9897C104.806 44.3163 109.098 39.6559 113.317 34.9309C113.822 34.3682 114.145 33.4361 114.15 32.6716C114.201 22.0577 114.184 11.4438 114.184 0.83416C114.184 0.258578 114.184 -0.321299 114.184 -0.982788H117.359V30.0557C117.48 30.1158 117.601 30.1716 117.721 30.2318C118.088 29.6562 118.455 29.0849 118.761 28.6124C122.259 30.395 123.26 34.4327 121.185 37.229C120.995 37.4867 120.819 37.7831 120.564 37.9678C117.652 40.1112 117.32 43.0449 117.346 46.4426C117.48 65.9522 117.411 85.4661 117.411 104.976V106.96H114.262V45.1239C113.71 45.5921 113.39 45.8111 113.132 46.0903C109.495 50.0421 105.841 53.981 102.274 57.9886C101.761 58.5641 101.407 59.4962 101.398 60.2694C101.329 66.4333 101.351 72.5972 101.364 78.7611C101.364 80.724 101.864 81.2223 103.87 81.2094C106.859 81.1922 109.193 82.3391 110.72 84.9378C111.035 85.4747 111.328 86.1276 111.333 86.7333C111.376 93.4255 111.359 100.118 111.359 106.973H111.35Z"
            />
            <path d="M88.0042 110.341H128.583V150H88.0042V110.341Z" />
            <path
                d="M52.1657 126.534H45.4794C45.3759 125.259 45.3543 124.034 45.1688 122.836C44.1551 116.161 39.8586 113.021 33.1983 114.164C27.6293 115.121 22.7806 117.78 18.1218 120.809C17.5956 121.152 17.2505 121.878 16.9787 122.492C14.6709 127.737 12.376 132.986 10.1328 138.256C9.7446 139.163 9.28304 139.584 8.23912 139.528C6.57834 139.433 4.90893 139.502 3.07129 139.502C3.27403 138.939 3.40344 138.497 3.58893 138.076C11.5909 120.061 18.7689 101.724 25.2438 83.1079C25.5932 82.1071 26.0979 81.553 27.1289 81.2051C34.8073 78.6064 42.4641 75.9346 50.1296 73.293C50.6343 73.1169 51.1563 72.9665 51.6782 72.8634C53.5288 72.5026 54.7194 72.988 55.3751 74.3453C56.1213 75.8831 55.8625 77.7 54.5986 78.7567C53.9559 79.2936 53.1578 79.6888 52.3684 79.9895C47.7484 81.742 43.1241 83.473 38.4782 85.1482C37.3222 85.5649 36.6277 86.1963 36.2265 87.399C34.4967 92.575 32.6375 97.7122 30.9163 102.888C30.6791 103.601 30.6359 104.761 31.0543 105.203C31.4598 105.633 32.6289 105.633 33.3536 105.427C36.1359 104.641 38.7543 104.937 41.3555 106.131C47.8347 109.108 51.0916 114.297 51.8335 121.208C52.019 122.943 52.0578 124.696 52.1743 126.53L52.1657 126.534Z"
            />
            <path d="M84.605 129.941V149.987H44.0129V129.941H84.605Z" />
            <path
                d="M149 13.4368H120.059V-1H148.564L148.84 -0.652074C147.18 0.911447 145.502 2.44919 143.871 4.04278C142.141 5.73087 142.15 6.68445 143.841 8.36394C145.437 9.95323 147.055 11.521 149.004 13.4325L149 13.4368Z"
            />
            <path
                d="M85.2561 48.1864C79.3938 48.1693 74.7177 43.5045 74.7005 37.6627C74.6832 31.7781 79.4758 26.9887 85.3467 27.0231C91.1659 27.0574 95.8938 31.7824 95.924 37.5897C95.9542 43.4701 91.1875 48.2036 85.2561 48.1864Z"
            />
            <path
                d="M50.3021 60.2565C50.3323 66.1412 45.557 70.9349 39.6861 70.9263C33.8884 70.9177 29.1218 66.1799 29.0787 60.3811C29.0355 54.5179 33.8194 49.7328 39.7206 49.7371C45.557 49.7414 50.2719 54.4277 50.3021 60.2565Z"
            />
            <path d="M40.5532 142.865V149.991H0V142.865H40.5532Z" />
        </g>
    </g>
    <defs>
        <clipPath id="clip0_31_1328">
            <rect width="149" height="149" fill="white" />
        </clipPath>
        <clipPath id="clip1_31_1328">
            <rect width="149" height="151" fill="white" transform="translate(0 -1)" />
        </clipPath>
    </defs>
</svg>
    