<svg width="50" height="40" viewBox="0 0 50 40" xmlns="http://www.w3.org/2000/svg">
    <path
        d="M0.0734076 15.6753C4.42438 17.8999 8.62927 20.052 12.8342 22.1938C16.5695 24.0977 20.3258 25.9808 24.0507 27.926C24.708 28.2675 25.2089 28.2882 25.8871 27.9467C33.5352 24.1494 41.2042 20.3935 48.8627 16.6272C49.1757 16.472 49.4887 16.3375 49.9165 16.1409C49.9478 16.5134 50 16.8031 50 17.0928C49.9896 20.3211 49.9478 23.5596 49.9687 26.7879C49.9687 27.4811 49.76 27.8536 49.134 28.164C41.3502 32.0027 33.5769 35.8621 25.814 39.7525C25.188 40.063 24.708 40.094 24.0716 39.7732C16.34 35.8207 8.59797 31.8889 0.845522 27.9778C0.198615 27.657 -0.0100642 27.3156 0.000369736 26.612C0.0525396 23.0319 0.0525396 19.4416 0.0734076 15.6753ZM21.5883 34.486C21.5883 33.3582 21.5361 32.4269 21.6196 31.4957C21.6926 30.699 21.3587 30.3162 20.6805 29.9747C15.4009 27.3259 10.1318 24.6461 4.8626 21.9766C4.56002 21.8214 4.247 21.6868 3.80877 21.4799C3.80877 22.556 3.84007 23.4976 3.77747 24.4288C3.73573 25.1531 3.95485 25.5462 4.63306 25.8773C8.6084 27.8536 12.5524 29.8816 16.5069 31.8992C18.1451 32.7373 19.7832 33.5651 21.5987 34.4756L21.5883 34.486ZM28.3286 34.3618C28.5269 34.3308 28.6312 34.3308 28.7147 34.2894C34.3595 31.4957 40.0043 28.702 45.6386 25.8877C45.8577 25.7842 46.129 25.5152 46.1394 25.3083C46.1916 24.1701 46.1707 23.0216 46.1812 21.8524C45.9516 21.8627 45.8368 21.842 45.7534 21.8834C40.1086 24.6771 34.4534 27.4604 28.819 30.2748C28.6103 30.3782 28.3808 30.668 28.3704 30.8852C28.3182 32.0338 28.3391 33.1823 28.3286 34.3722V34.3618Z"
    />
    <path
        d="M48.5805 12.1887C44.8451 10.2538 41.1098 8.30857 37.364 6.38404C34.2129 5.3597 33.086 6.03225 33.086 6.03225C33.8269 5.05964 32.9713 4.25258 32.1887 3.76627L31.2079 3.26962L24.7493 0L20.6174 2.06938C14.2318 5.24588 7.82537 8.40169 1.42934 11.5678C1.24153 11.661 1.07458 11.8058 0.855469 11.961C1.03285 12.0852 1.10588 12.1473 1.19979 12.199C8.88963 16.1515 16.569 20.1247 24.2693 24.0359C24.6658 24.2325 25.3545 24.1497 25.7822 23.9427C33.2008 20.3006 40.5985 16.6171 47.9962 12.944C48.2883 12.7991 48.5596 12.6232 48.8831 12.4473C48.7266 12.3128 48.6535 12.2404 48.5701 12.1887H48.5805ZM10.7156 11.9921C15.5674 9.62262 20.3148 7.30492 25.0936 4.95617L29.1003 7.20145C27.7543 7.86365 26.4187 8.52585 25.0727 9.18805L14.9205 14.0925C13.5745 13.4199 12.2076 12.737 10.726 11.9817L10.7156 11.9921ZM25.344 18.9659C25.0727 19.1004 24.6032 18.9969 24.3111 18.8417C22.9233 18.1485 21.5356 17.4552 20.1479 16.7516L29.2672 12.2611C30.6132 11.5989 31.9487 10.9367 33.2947 10.2848C33.5973 10.14 34.0564 10.0262 34.3381 10.1503C35.7989 10.8125 37.2179 11.5575 38.8352 12.3646C34.2129 14.6305 29.7889 16.8137 25.344 18.9555V18.9659Z"
    />
</svg>
    