<svg width="100" height="100" viewBox="0 0 100 100" xmlns="http://www.w3.org/2000/svg">
    <path
        d="M0.0267608 31.526C0.564681 30.6657 1.38634 30.4284 2.33804 30.375C10.5487 29.8707 18.7535 29.3545 26.9582 28.8324C29.2282 28.6841 29.4173 28.7731 30.3749 30.8497C33.4488 37.5303 36.5285 44.2051 39.5846 50.8976C39.7974 51.3604 39.9984 51.8944 39.9747 52.3809C39.9156 53.5557 38.7393 54.1549 37.4861 53.6862C35.3049 52.8674 33.1355 52.019 30.8715 51.1468C28.1405 55.9052 25.4213 60.6398 22.5839 65.5702C23.0746 65.5702 23.4056 65.5702 23.7366 65.5702C27.2834 65.5702 30.8301 65.5702 34.3709 65.5702C36.1443 65.5702 36.694 66.1339 36.694 67.9138C36.694 75.2946 36.694 82.6695 36.694 90.0502C36.694 91.7174 36.1206 92.3642 34.5069 92.3404C31.7463 92.3048 28.9621 92.4116 26.243 92.0556C22.4716 91.5691 19.6815 89.3501 17.784 86.0751C13.061 77.9348 8.34975 69.7887 3.69171 61.6128C1.58141 57.9106 1.44545 54.0541 3.3134 50.1975C5.01582 46.6792 6.77737 43.1905 8.50935 39.69C8.66895 39.3696 8.81082 39.0492 8.98816 38.6873C6.49954 37.1388 4.03456 35.6258 1.59914 34.0654C1.01984 33.6916 0.541036 33.1576 0.0149384 32.6949C0.0149384 32.3033 0.0149384 31.9117 0.0149384 31.5201L0.0267608 31.526ZM34.9857 49.0821C34.8734 48.7855 34.8438 48.6727 34.7965 48.5659C32.3906 43.3329 29.973 38.1059 27.5967 32.861C27.3484 32.3211 27.0233 32.2617 26.5326 32.2914C22.0224 32.5703 17.5121 32.8254 13.0019 33.1102C11.1398 33.2229 9.27781 33.3772 7.14977 33.5314C8.73398 34.5222 10.0995 35.3766 11.465 36.231C13.0846 37.2456 13.2442 37.8033 12.3989 39.512C10.4069 43.5346 8.40886 47.5573 6.41678 51.5799C4.98627 54.4634 5.12223 57.3113 6.70052 60.0821C9.07092 64.2412 11.4768 68.3766 13.8708 72.5179C13.989 72.7196 14.1486 72.8976 14.3319 73.1468C14.5565 72.7671 14.722 72.4882 14.8816 72.2034C19.3742 64.3836 23.8608 56.5638 28.3592 48.7439C29.1749 47.32 29.8074 47.0945 31.3207 47.676C32.4911 48.1209 33.6557 48.5719 34.9916 49.088L34.9857 49.0821ZM33.2241 88.8043V68.9402C29.2104 68.9402 25.2795 68.9343 21.3485 68.958C21.1239 68.958 20.8283 69.1894 20.6983 69.403C19.3032 71.6398 17.9259 73.8885 16.5841 76.1608C16.4304 76.416 16.4363 76.9143 16.5841 77.1754C17.9614 79.6495 19.3623 82.1117 20.8106 84.5443C22.1997 86.882 24.2273 88.4542 26.9405 88.7509C28.9858 88.9764 31.0784 88.7924 33.2241 88.7924V88.8043Z"
        fill="black" />
    <path
        d="M61.6985 63.82H77.0321C76.8134 63.3928 76.6538 63.0546 76.4706 62.7224C74.4844 59.1328 72.4982 55.5433 70.5121 51.9538C69.6136 50.334 69.8086 49.6517 71.4283 48.7024C77.7119 45.018 83.9896 41.3394 90.2733 37.6609C91.7747 36.7828 92.6318 37.032 93.4121 38.5865C95.1736 42.1048 96.9352 45.6231 98.6672 49.1593C100.647 53.1997 100.387 57.1452 98.1115 60.9958C93.1343 69.4386 88.1098 77.8577 83.2034 86.3421C80.833 90.4419 77.4105 92.4117 72.7229 92.3583C69.4067 92.3167 66.0846 92.3523 62.7684 92.3523C62.4492 92.3523 62.13 92.3523 61.6866 92.3523C61.6866 93.9661 61.7103 95.4909 61.6807 97.0157C61.6512 98.4694 60.5871 99.3771 59.4226 98.8847C58.9734 98.6948 58.5773 98.2795 58.2699 97.882C55.3616 94.1204 52.477 90.3351 49.5805 86.5557C47.145 83.3755 44.7037 80.1954 42.2683 77.0093C41.358 75.8167 41.3993 75.2116 42.4161 74.0902C47.7125 68.2461 53.0031 62.396 58.3113 56.5579C58.6305 56.2078 59.0088 55.8281 59.4345 55.6679C60.6344 55.217 61.6571 56.0951 61.6748 57.5665C61.6985 59.6193 61.6748 61.6722 61.6748 63.82H61.6985ZM90.3205 67.2731C89.7944 67.2731 89.4161 67.2731 89.0437 67.2731C79.6094 67.2731 70.181 67.2731 60.7467 67.2731C58.8138 67.2731 58.3113 66.7628 58.2995 64.8464C58.2995 63.8852 58.2995 62.9241 58.2995 61.9629C58.2227 61.9333 58.1399 61.9095 58.0631 61.8799C53.8956 66.478 49.7282 71.0702 45.5313 75.704C49.7282 81.1743 53.9016 86.615 58.1872 92.204C58.2404 91.8124 58.2818 91.6344 58.2877 91.4564C58.3763 89.3798 58.8197 88.9526 60.8709 88.9526C65.0324 88.9526 69.1998 88.9586 73.3613 88.9526C76.3051 88.9408 78.5277 87.6533 80.0114 85.0961C83.2507 79.5249 86.4901 73.9478 89.7235 68.3707C89.9009 68.0681 90.0545 67.7596 90.3146 67.279L90.3205 67.2731ZM90.9117 41.2148C85.2133 44.5552 79.5917 47.848 73.9406 51.1587C76.2341 55.306 78.4567 59.3524 80.7207 63.3869C80.8567 63.6301 81.2646 63.8496 81.5483 63.8496C84.965 63.8793 88.3758 63.8793 91.7924 63.8496C92.0821 63.8496 92.484 63.6301 92.6377 63.3928C93.6131 61.8917 94.5884 60.3847 95.4574 58.8243C96.9175 56.2019 97.012 53.4904 95.6879 50.7731C94.5234 48.3761 93.3234 45.991 92.1353 43.6059C91.7452 42.8286 91.3432 42.0573 90.9117 41.2208V41.2148Z"
        fill="black" />
    <path
        d="M59.4167 31.5082C56.8808 26.6965 54.3804 21.9559 51.8149 17.0789C51.5725 17.4764 51.3775 17.7612 51.2119 18.0638C49.1903 21.7067 47.1746 25.3556 45.1529 28.9985C44.2072 30.7073 43.486 30.8971 41.8722 29.8707C36.1443 26.2159 30.4104 22.5552 24.6883 18.8944C23.1219 17.8917 22.9741 17.2094 23.9613 15.5897C25.4923 13.0859 27.0292 10.594 28.5543 8.09024C31.0133 4.04979 34.6369 2.03254 39.3186 2.01474C48.2977 1.97914 57.2768 1.97914 66.256 2.01474C70.6953 2.03254 74.1356 3.91927 76.3937 7.82325C78.0725 10.7245 79.7572 13.6258 81.4419 16.5271C81.6192 16.8357 81.8143 17.1323 82.0389 17.5002C82.3167 17.3815 82.5827 17.2925 82.831 17.1679C84.829 16.1533 86.827 15.1388 88.8191 14.1124C89.6348 13.697 90.4387 13.5546 91.1481 14.2666C91.822 14.9489 91.7037 15.738 91.3254 16.5271C87.495 24.4716 83.6645 32.416 79.8281 40.3604C79.2606 41.5411 78.6813 41.7785 77.3986 41.6301C73.0775 41.1139 68.7505 40.6334 64.4294 40.1409C60.8177 39.7315 57.2 39.3281 53.5883 38.9128C52.7016 38.8119 51.9272 38.5093 51.7203 37.4947C51.5193 36.4861 52.0927 35.9225 52.873 35.4538C55.0483 34.1544 57.2118 32.8432 59.4285 31.5082H59.4167ZM86.1649 19.4106C85.9403 19.4225 85.8694 19.4106 85.8221 19.4284C84.8054 19.9387 83.7945 20.4549 82.7778 20.971C81.1227 21.8076 80.5197 21.6355 79.5976 20.0514C77.5878 16.5865 75.5721 13.1275 73.5681 9.65659C71.9248 6.80869 69.5071 5.40254 66.2028 5.42628C61.0009 5.46781 55.7931 5.43814 50.5854 5.43814C50.278 5.43814 49.9706 5.46781 49.5568 5.49154C49.7637 5.90686 49.9115 6.22131 50.077 6.52983C54.339 14.6226 58.6069 22.7154 62.8629 30.8141C63.6432 32.3033 63.4422 33.0152 62.0117 33.8874C60.9241 34.5579 59.8305 35.2224 58.5005 36.0352C64.8905 36.765 70.979 37.4592 77.1149 38.1593C80.1237 31.9236 83.1148 25.7175 86.159 19.4047L86.1649 19.4106ZM27.3129 16.5627C32.4793 19.8615 37.563 23.1129 42.6584 26.3583C42.7471 26.2574 42.8298 26.1981 42.8771 26.115C45.082 22.1339 47.2987 18.1528 49.474 14.1539C49.6218 13.881 49.5745 13.3885 49.4327 13.0919C48.2918 10.7186 47.1273 8.35723 45.9096 6.01959C45.7618 5.74073 45.2889 5.47374 44.9638 5.46187C42.9185 5.41441 40.8673 5.41441 38.822 5.44408C35.8487 5.49154 33.4901 6.76716 31.8586 9.2472C30.304 11.6086 28.8676 14.0471 27.3129 16.5568V16.5627Z"
        fill="black" />
</svg>
    