<svg width="176" height="40" viewBox="0 0 176 40" xmlns="http://www.w3.org/2000/svg">
    <path
        d="M0.0747636 15.6753C4.50611 17.8999 8.78867 20.052 13.0712 22.1938C16.8756 24.0977 20.7012 25.9808 24.495 27.926C25.1644 28.2675 25.6745 28.2882 26.3653 27.9467C34.1547 24.1494 41.9653 20.3935 49.7653 16.6272C50.0841 16.472 50.4029 16.3375 50.8386 16.1409C50.8705 16.5134 50.9236 16.8031 50.9236 17.0928C50.913 20.3211 50.8705 23.5596 50.8917 26.7879C50.8917 27.4811 50.6792 27.8536 50.0416 28.164C42.1141 32.0027 34.1972 35.8621 26.2909 39.7525C25.6533 40.063 25.1644 40.094 24.5162 39.7732C16.6418 35.8207 8.75679 31.8889 0.861141 27.9778C0.202284 27.657 -0.0102502 27.3156 0.000376566 26.612C0.0535102 23.0319 0.0535102 19.4416 0.0747636 15.6753ZM21.9871 34.486C21.9871 33.3582 21.9339 32.4269 22.0189 31.4957C22.0933 30.699 21.7533 30.3162 21.0625 29.9747C15.6854 27.3259 10.3189 24.6461 4.95243 21.9766C4.64425 21.8214 4.32545 21.6868 3.87913 21.4799C3.87913 22.556 3.91101 23.4976 3.84725 24.4288C3.80474 25.1531 4.0279 25.5462 4.71864 25.8773C8.76742 27.8536 12.7843 29.8816 16.8118 31.8992C18.4802 32.7373 20.1486 33.5651 21.9977 34.4756L21.9871 34.486ZM28.8519 34.3618C29.0538 34.3308 29.1601 34.3308 29.2451 34.2894C34.9942 31.4957 40.7432 28.7021 46.4816 25.8877C46.7048 25.7842 46.9811 25.5152 46.9917 25.3083C47.0449 24.1701 47.0236 23.0216 47.0342 21.8524C46.8004 21.8627 46.6836 21.842 46.5985 21.8834C40.8495 24.6771 35.0898 27.4604 29.3514 30.2748C29.1388 30.3782 28.9051 30.668 28.8944 30.8852C28.8413 32.0338 28.8625 33.1823 28.8519 34.3722V34.3618Z"
    />
    <path
        d="M49.4783 12.1887C45.674 10.2538 41.8696 8.30857 38.0546 6.38404C34.8453 5.3597 33.6976 6.03225 33.6976 6.03225C34.4521 5.05964 33.5807 4.25258 32.7837 3.76627L31.7848 3.26962L25.2069 0L20.9987 2.06938C14.4952 5.24588 7.97035 8.40169 1.45617 11.5678C1.26489 11.661 1.09487 11.8058 0.871704 11.961C1.05236 12.0852 1.12675 12.1473 1.22239 12.199C9.05428 16.1515 16.8755 20.1247 24.7181 24.0359C25.1219 24.2325 25.8232 24.1497 26.2589 23.9427C33.8145 20.3006 41.3489 16.6171 48.8832 12.944C49.1808 12.7991 49.4571 12.6232 49.7865 12.4473C49.6271 12.3128 49.5527 12.2404 49.4677 12.1887H49.4783ZM10.914 11.9921C15.8554 9.62262 20.6905 7.30492 25.5576 4.95617L29.6382 7.20145C28.2674 7.86365 26.9072 8.52585 25.5363 9.18805L15.1965 14.0925C13.8257 13.4199 12.4336 12.737 10.9246 11.9817L10.914 11.9921ZM25.8126 18.9659C25.5363 19.1004 25.0581 18.9969 24.7606 18.8417C23.3472 18.1485 21.9339 17.4552 20.5205 16.7516L29.8083 12.2611C31.1791 11.5989 32.5393 10.9367 33.9102 10.2848C34.2183 10.14 34.6859 10.0262 34.9728 10.1503C36.4606 10.8125 37.9058 11.5575 39.553 12.3646C34.8453 14.6305 30.3396 16.8137 25.8126 18.9555V18.9659Z"
    />
    <path
        d="M65.1102 16.0477C65.1102 16.8237 65.0252 17.5066 64.887 18.086C64.7382 18.6654 64.4832 19.1414 64.1113 19.5139C63.7925 19.8243 63.3993 20.0519 62.9104 20.2175C62.4216 20.3727 61.8159 20.4554 61.072 20.4554L56.8532 20.4347L56.9276 6.07324L61.1464 6.09394C61.8796 6.09394 62.496 6.17671 62.9848 6.33191C63.4737 6.48712 63.8775 6.7251 64.1856 7.0355C64.5363 7.37695 64.7914 7.80118 64.9295 8.31852C65.0677 8.83587 65.1421 9.43599 65.1314 10.1292C65.1314 10.6052 65.0889 11.0294 65.0145 11.4122C64.9401 11.7951 64.7382 12.1365 64.4301 12.4469C64.3344 12.5401 64.2388 12.6228 64.1325 12.7056C64.0262 12.7884 63.8987 12.8608 63.75 12.9229C63.8881 12.9953 64.005 13.0678 64.1113 13.1609C64.2175 13.2436 64.3132 13.3368 64.4088 13.4299C64.7489 13.8127 64.9508 14.237 65.0145 14.7233C65.0783 15.2096 65.1102 15.6545 65.1102 16.058V16.0477ZM62.1984 16.0063C62.1984 15.3441 62.1028 14.8681 61.8903 14.5784C61.6777 14.2887 61.2846 14.1438 60.7107 14.1335H59.7862L59.7649 17.8377H60.6895C61.2739 17.8377 61.6777 17.7032 61.8796 17.4135C62.0816 17.1237 62.1878 16.6478 62.1984 15.9959V16.0063ZM62.2303 10.2017C62.2303 9.65327 62.1241 9.26009 61.9115 9.02211C61.699 8.78413 61.2952 8.67032 60.7001 8.65997H59.8181L59.8074 11.7227H60.6895C61.2633 11.7227 61.6671 11.6088 61.8903 11.3709C62.1134 11.1329 62.2303 10.7397 62.2303 10.2017Z"
    />
    <path
        d="M66.9484 8.84705V5.98096L69.8708 5.9913V8.8574L66.9484 8.84705ZM66.9697 20.4666L67.0228 10.0369H69.7645L69.7114 20.477H66.9697V20.4666Z"
    />
    <path
        d="M71.7838 20.4975L71.8581 6.13599H74.7699L74.7061 17.9315L78.5105 17.9522V20.5389L71.7731 20.5078L71.7838 20.4975Z"
    />
    <path
        d="M87.7026 16.3175C87.7026 17.7558 87.3094 18.8525 86.5549 19.5975C85.8004 20.3425 84.7909 20.715 83.5369 20.715C83.1225 20.715 82.7612 20.6736 82.4424 20.6012C82.1236 20.5287 81.8367 20.4149 81.5816 20.2804C81.3266 20.1459 81.1034 19.9907 80.9121 19.8251C80.7209 19.6596 80.5402 19.4733 80.3702 19.2664C80.0833 18.925 79.8707 18.5214 79.722 18.0455C79.5732 17.5695 79.4669 17.0625 79.4138 16.5245C79.35 15.9864 79.3288 15.4484 79.3181 14.9C79.3075 14.3516 79.3181 13.8446 79.3181 13.3583C79.3181 12.872 79.3181 12.3547 79.3394 11.8166C79.3606 11.2786 79.3819 10.7302 79.4457 10.1922C79.5094 9.65413 79.6157 9.14713 79.7751 8.68152C79.9239 8.21591 80.147 7.80204 80.4339 7.45024C80.604 7.25365 80.7846 7.06741 80.9759 6.90186C81.1778 6.7363 81.401 6.5811 81.656 6.44659C81.9111 6.31208 82.198 6.20861 82.5168 6.13618C82.8356 6.06376 83.2075 6.03271 83.6113 6.03271C84.2277 6.03271 84.7696 6.13618 85.2478 6.32243C85.7261 6.50867 86.1405 6.77769 86.4912 7.11914C86.8844 7.51232 87.1819 7.97793 87.3838 8.52632C87.5857 9.07471 87.7026 9.67483 87.7239 10.337H84.8122C84.8122 10.1715 84.8015 10.0059 84.7696 9.80934C84.7484 9.61274 84.6846 9.4265 84.6102 9.2506C84.5359 9.07471 84.4083 8.92985 84.2383 8.80569C84.0789 8.68152 83.8557 8.61944 83.5795 8.61944C83.3032 8.61944 83.1012 8.67118 82.9525 8.77464C82.8037 8.87811 82.6974 9.01262 82.6124 9.17817C82.5274 9.34373 82.4636 9.57136 82.3999 9.86107C82.3468 10.1611 82.3042 10.4922 82.2724 10.8647C82.2405 11.2372 82.2192 11.6407 82.2192 12.0753C82.2192 12.5099 82.2086 12.9341 82.198 13.3687C82.1874 13.8032 82.198 14.2275 82.198 14.662C82.198 15.0966 82.2192 15.5001 82.2405 15.8726C82.2617 16.2451 82.3042 16.5866 82.3574 16.8866C82.4105 17.1867 82.4743 17.4143 82.5593 17.5695C82.6443 17.7351 82.7506 17.8696 82.8993 17.973C83.0375 18.0765 83.25 18.1386 83.5263 18.1386C83.7707 18.1386 83.9726 18.0869 84.132 17.9937C84.2914 17.9006 84.4083 17.7661 84.504 17.6006C84.589 17.435 84.6634 17.2591 84.7059 17.0625C84.7484 16.8659 84.7696 16.6693 84.7696 16.4727V14.9828H83.5688V12.6651L87.7026 12.6858L87.6814 16.3382L87.7026 16.3175Z"
    />
    <path
        d="M89.3391 8.96033V6.09424L92.2614 6.10459V8.97068L89.3391 8.96033ZM89.3603 20.5799L89.4134 10.1502H92.1551L92.102 20.5903H89.3603V20.5799Z"
    />
    <path
        d="M100.178 20.6316L97.1179 13.5957L97.086 20.6109H94.1743L94.2486 6.23901H96.7884L99.7852 13.2853L99.817 6.27005H102.729L102.654 20.6419H100.178V20.6316Z"
    />
    <path
        d="M113.079 13.5234C113.079 14.0097 113.079 14.5167 113.058 15.0651C113.058 15.6135 113.015 16.1515 112.952 16.6896C112.888 17.2276 112.782 17.7346 112.622 18.2105C112.473 18.6865 112.25 19.09 111.963 19.4315C111.623 19.8247 111.198 20.1558 110.709 20.4351C110.221 20.7145 109.562 20.849 108.743 20.849C108.329 20.849 107.968 20.8076 107.649 20.7352C107.33 20.6628 107.043 20.5489 106.788 20.4144C106.533 20.2799 106.31 20.1247 106.119 19.9592C105.927 19.7936 105.747 19.6074 105.577 19.4004C105.29 19.059 105.077 18.6555 104.928 18.1795C104.78 17.7035 104.673 17.1966 104.62 16.6585C104.557 16.1205 104.535 15.5824 104.525 15.034C104.514 14.4857 104.525 13.9787 104.525 13.4924C104.525 13.0061 104.525 12.4887 104.546 11.9507C104.567 11.4126 104.588 10.8642 104.652 10.3262C104.716 9.78817 104.822 9.28117 104.982 8.81556C105.13 8.34995 105.354 7.93607 105.64 7.58427C105.811 7.38768 105.991 7.20144 106.182 7.03589C106.384 6.87034 106.608 6.71513 106.863 6.58062C107.118 6.44611 107.405 6.34265 107.723 6.27022C108.042 6.19779 108.414 6.16675 108.818 6.16675C109.636 6.16675 110.295 6.3116 110.784 6.60132C111.273 6.89103 111.687 7.22213 112.027 7.61532C112.314 7.96711 112.527 8.38099 112.675 8.8466C112.824 9.32256 112.93 9.81921 112.984 10.3572C113.047 10.8953 113.069 11.4333 113.079 11.9817C113.09 12.5301 113.079 13.0371 113.079 13.5234ZM110.178 13.5027C110.178 13.0681 110.178 12.6439 110.178 12.2093C110.178 11.7748 110.157 11.3712 110.136 10.9988C110.114 10.6263 110.072 10.2848 110.019 9.98476C109.966 9.6847 109.902 9.45706 109.817 9.30186C109.732 9.14666 109.615 9.0018 109.466 8.89833C109.307 8.79486 109.094 8.73278 108.818 8.73278C108.542 8.73278 108.34 8.78452 108.191 8.88798C108.042 8.99145 107.936 9.12596 107.851 9.29151C107.766 9.45706 107.702 9.6847 107.638 9.97441C107.575 10.2641 107.543 10.6056 107.511 10.9781C107.479 11.3505 107.458 11.7541 107.458 12.1886C107.458 12.6232 107.447 13.0474 107.436 13.482C107.426 13.9166 107.436 14.3408 107.436 14.7754C107.436 15.2099 107.458 15.6135 107.479 15.986C107.5 16.3585 107.543 16.6999 107.596 17C107.649 17.3 107.713 17.5277 107.798 17.6829C107.883 17.8484 107.989 17.9829 108.138 18.0864C108.276 18.1899 108.488 18.2519 108.765 18.2519C109.041 18.2519 109.254 18.2002 109.413 18.0967C109.572 17.9933 109.689 17.8588 109.774 17.6932C109.859 17.5277 109.923 17.3 109.987 17.0103C110.04 16.7102 110.082 16.3791 110.114 16.0067C110.146 15.6342 110.157 15.2306 110.167 14.7961C110.178 14.3615 110.178 13.9373 110.189 13.5027H110.178Z"
    />
    <path
        d="M122.866 16.4932C122.866 17.9314 122.473 19.0282 121.719 19.7732C120.964 20.5181 119.955 20.8906 118.701 20.8906C118.286 20.8906 117.925 20.8492 117.606 20.7768C117.287 20.7044 117 20.5906 116.745 20.4561C116.49 20.3215 116.267 20.1663 116.076 20.0008C115.885 19.8352 115.704 19.649 115.534 19.4421C115.247 19.1006 115.034 18.6971 114.886 18.2211C114.737 17.7452 114.631 17.2382 114.578 16.7001C114.514 16.1621 114.492 15.6241 114.482 15.0757C114.482 14.5273 114.482 14.0203 114.482 13.534C114.482 13.0477 114.482 12.5303 114.503 11.9923C114.524 11.4542 114.546 10.9059 114.609 10.3678C114.673 9.82978 114.779 9.32279 114.939 8.85718C115.088 8.39156 115.311 7.97769 115.598 7.62589C115.768 7.4293 115.948 7.24306 116.14 7.07751C116.342 6.91196 116.565 6.75675 116.82 6.62224C117.075 6.48773 117.362 6.38426 117.681 6.31184C117.999 6.23941 118.371 6.20837 118.775 6.20837C119.391 6.20837 119.933 6.31184 120.412 6.49808C120.89 6.68432 121.304 6.95334 121.655 7.29479C122.048 7.68797 122.346 8.15359 122.548 8.70197C122.749 9.25036 122.866 9.85048 122.888 10.5127H119.976C119.976 10.3471 119.965 10.1816 119.933 9.98499C119.912 9.7884 119.848 9.60215 119.774 9.42625C119.7 9.25036 119.572 9.1055 119.402 8.98134C119.243 8.85718 119.019 8.79509 118.743 8.79509C118.467 8.79509 118.265 8.84683 118.116 8.9503C117.967 9.05377 117.861 9.18828 117.776 9.35383C117.691 9.51938 117.627 9.74701 117.564 10.0367C117.51 10.3368 117.468 10.6679 117.436 11.0404C117.404 11.4129 117.383 11.8164 117.383 12.251C117.383 12.6855 117.372 13.1098 117.362 13.5443C117.351 13.9789 117.362 14.4031 117.362 14.8377C117.362 15.2723 117.383 15.6758 117.404 16.0483C117.425 16.4208 117.468 16.7622 117.521 17.0623C117.574 17.3623 117.638 17.59 117.723 17.7452C117.808 17.9107 117.914 18.0452 118.063 18.1487C118.201 18.2522 118.414 18.3142 118.69 18.3142C118.934 18.3142 119.136 18.2625 119.296 18.1694C119.455 18.0763 119.572 17.9418 119.668 17.7762C119.753 17.6107 119.827 17.4348 119.87 17.2382C119.912 17.0416 119.933 16.845 119.933 16.6484V15.1584H118.733V12.8407L122.866 12.8614L122.845 16.5139L122.866 16.4932ZM121.474 3.21811C121.453 3.70442 121.368 4.10794 121.198 4.43905C121.028 4.77015 120.826 5.02882 120.571 5.22541C120.316 5.422 120.029 5.55651 119.71 5.64963C119.391 5.73241 119.062 5.7738 118.733 5.7738C118.403 5.7738 118.084 5.73241 117.755 5.63929C117.436 5.54616 117.149 5.41165 116.894 5.21506C116.639 5.01847 116.437 4.7598 116.278 4.4287C116.118 4.0976 116.033 3.69407 116.012 3.20776H117.776C117.797 3.52852 117.914 3.73546 118.116 3.82858C118.318 3.93205 118.531 3.98378 118.733 3.98378C118.934 3.98378 119.147 3.93205 119.349 3.83893C119.551 3.73546 119.668 3.53886 119.7 3.22846H121.464L121.474 3.21811Z"
    />
    <path
        d="M132.855 16.9482C132.855 17.5276 132.76 18.0553 132.568 18.5313C132.377 19.0072 132.112 19.4211 131.75 19.7729C130.964 20.5593 129.954 20.9524 128.711 20.9524C127.468 20.9524 126.458 20.5489 125.682 19.7522C125.332 19.4004 125.066 18.9865 124.875 18.5106C124.694 18.0346 124.609 17.5069 124.609 16.9275L124.662 6.41504H127.574L127.521 17.0827C127.521 17.5587 127.638 17.8898 127.871 18.0864C128.105 18.2829 128.392 18.3864 128.722 18.3864C129.051 18.3864 129.338 18.2933 129.572 18.0967C129.816 17.9001 129.933 17.569 129.933 17.1034L129.986 6.45643H132.898L132.845 16.9792L132.855 16.9482Z"
    />
    <path
        d="M134.991 20.8078L135.066 6.44629H137.977L137.914 18.2418L141.729 18.2625V20.8492L134.991 20.8181V20.8078Z"
    />
    <path
        d="M143.333 20.8486L143.408 6.48706H146.32L146.256 18.2825L150.071 18.3032V20.89L143.333 20.8589V20.8486Z"
    />
    <path
        d="M158.413 20.9216L157.956 18.6763L154.598 18.6556L154.119 20.8906H151.091L154.916 6.52905H157.786L161.462 20.9216H158.434H158.413ZM156.308 10.7713L155.15 16.0896H157.403L156.308 10.7713Z"
    />
    <path
        d="M168.349 20.9734L166.595 15.3757H165.628L165.596 20.9527H162.685L162.759 6.58081L166.914 6.6015C167.711 6.6015 168.37 6.70497 168.891 6.91191C169.411 7.11885 169.826 7.40856 170.134 7.7707C170.442 8.14319 170.655 8.59846 170.772 9.14684C170.889 9.69523 170.952 10.3057 170.942 10.9886C170.942 11.3818 170.92 11.7543 170.878 12.1061C170.835 12.4579 170.75 12.7993 170.634 13.1201C170.517 13.4408 170.347 13.7409 170.123 14.0202C169.9 14.2996 169.613 14.5376 169.263 14.7549L171.356 20.9734H168.328H168.349ZM168.051 10.9886C168.051 10.792 168.051 10.5747 168.019 10.3678C167.998 10.1505 167.956 9.9539 167.881 9.778C167.807 9.60211 167.69 9.45725 167.531 9.35378C167.371 9.25031 167.159 9.18823 166.882 9.18823H165.65L165.628 12.789H166.861C167.137 12.789 167.35 12.7372 167.509 12.6234C167.669 12.5096 167.786 12.3647 167.86 12.1888C167.934 12.0129 167.987 11.8163 168.009 11.6094C168.03 11.3921 168.041 11.1852 168.041 10.9886H168.051Z"
    />
    <path d="M173.014 21.0048L173.088 6.64331H176L175.926 21.0152H173.014V21.0048Z" />
    <path
        d="M63.0699 30.9997C63.0699 31.3514 63.0699 31.7343 63.0592 32.1275C63.0592 32.531 63.0273 32.9242 62.9742 33.3174C62.9211 33.7105 62.8467 34.083 62.7298 34.4348C62.6129 34.7866 62.4535 35.0763 62.241 35.3247C61.9859 35.6144 61.6778 35.8524 61.3164 36.0593C60.9551 36.2662 60.4663 36.3697 59.8606 36.3594C59.563 36.3594 59.2867 36.3283 59.053 36.2766C58.8192 36.2248 58.6066 36.1421 58.4154 36.0489C58.2241 35.9455 58.0647 35.842 57.9159 35.7178C57.7671 35.5937 57.6396 35.4592 57.5121 35.304C57.2995 35.0556 57.1401 34.7556 57.0339 34.4038C56.9276 34.052 56.8532 33.6795 56.8107 33.2863C56.7682 32.8931 56.747 32.4896 56.7363 32.0964C56.7363 31.6929 56.7363 31.3204 56.7363 30.9686C56.7363 30.6168 56.7363 30.234 56.747 29.8408C56.747 29.4373 56.7788 29.0441 56.832 28.6509C56.8745 28.2577 56.9595 27.8852 57.0764 27.5438C57.1933 27.2023 57.3527 26.9023 57.5652 26.6436C57.6821 26.4988 57.8203 26.3642 57.969 26.2401C58.1178 26.1159 58.2772 26.0021 58.4685 25.909C58.6598 25.8159 58.8723 25.7331 59.1061 25.6813C59.3399 25.6296 59.6162 25.5986 59.9137 25.6089C60.5194 25.6089 60.9976 25.7227 61.359 25.9297C61.7203 26.1366 62.0284 26.3849 62.2728 26.6746C62.4854 26.9333 62.6448 27.2334 62.7511 27.5852C62.8573 27.9266 62.9317 28.2991 62.9742 28.6923C63.0167 29.0855 63.038 29.489 63.0486 29.8822C63.0486 30.2857 63.0486 30.6582 63.0486 31.01L63.0699 30.9997ZM60.9233 30.9893C60.9233 30.6789 60.9233 30.3581 60.9233 30.0374C60.9233 29.727 60.9126 29.4269 60.8914 29.1476C60.8701 28.8682 60.8382 28.6302 60.8064 28.4129C60.7639 28.1956 60.7213 28.0301 60.6576 27.9059C60.5938 27.7921 60.5088 27.6886 60.3919 27.6059C60.275 27.5231 60.1156 27.4817 59.9137 27.4817C59.7118 27.4817 59.563 27.5231 59.4568 27.5955C59.3505 27.6783 59.2655 27.7714 59.2017 27.8956C59.138 28.0094 59.0848 28.1853 59.053 28.4026C59.0104 28.6199 58.9786 28.8682 58.9573 29.1372C58.9361 29.4166 58.9254 29.7063 58.9148 30.027C58.9148 30.3478 58.9148 30.6582 58.9042 30.979C58.9042 31.2997 58.9042 31.6101 58.9042 31.9309C58.9042 32.2413 58.9148 32.5413 58.9361 32.8207C58.9573 33.1001 58.9786 33.3484 59.0211 33.5553C59.0636 33.7726 59.1061 33.9382 59.1698 34.0623C59.2336 34.1865 59.308 34.2796 59.4143 34.3624C59.5205 34.4452 59.6693 34.4866 59.8712 34.4866C60.0731 34.4866 60.2325 34.4452 60.3494 34.3727C60.4663 34.3003 60.5513 34.1969 60.6151 34.0727C60.6788 33.9589 60.732 33.783 60.7639 33.5657C60.8064 33.3484 60.8382 33.1001 60.8595 32.8311C60.8807 32.5517 60.8914 32.262 60.902 31.9412C60.902 31.6205 60.9126 31.3101 60.9126 30.9893H60.9233Z"
    />
    <path
        d="M70.3704 36.3075L69.0739 32.1998H68.3619L68.3407 36.2972H66.1941L66.2472 25.7537L69.3183 25.7744C69.9028 25.7744 70.3916 25.8571 70.7742 26.002C71.1568 26.1572 71.4649 26.3641 71.6881 26.6331C71.9113 26.9022 72.0707 27.2436 72.1557 27.6471C72.2407 28.0507 72.2832 28.4956 72.2832 29.0026C72.2832 29.2923 72.2619 29.5613 72.2301 29.82C72.1982 30.0787 72.1451 30.327 72.0494 30.565C71.9538 30.803 71.8369 31.0202 71.6775 31.2168C71.5181 31.4238 71.3055 31.5997 71.0399 31.7549L72.5914 36.3179H70.3491L70.3704 36.3075ZM70.1472 28.9819C70.1472 28.837 70.1472 28.6818 70.126 28.5266C70.1153 28.3714 70.0728 28.2266 70.0197 28.0921C69.9666 27.9679 69.8816 27.8541 69.7647 27.7817C69.6478 27.6989 69.4884 27.6575 69.2865 27.6575H68.3832L68.3726 30.3063H69.2758C69.4777 30.3063 69.6371 30.2649 69.754 30.1821C69.8709 30.0994 69.9559 29.9959 70.0091 29.8614C70.0622 29.7372 70.1047 29.5924 70.1154 29.4372C70.126 29.282 70.1366 29.1268 70.1366 28.9819H70.1472Z"
    />
    <path
        d="M81.2096 36.359L81.2415 30.8648L80.0407 34.4655H78.9355L77.8091 30.8544L77.7772 36.3279H75.6306L75.6838 25.7844H77.5753L79.5094 30.9682L81.4966 25.8155H83.3988L83.3456 36.359H81.199H81.2096Z"
    />
    <path
        d="M91.4964 36.4115L91.1563 34.7664H88.6803L88.3296 36.3908H86.0874L88.9035 25.8577H91.0182L93.728 36.4219H91.4858L91.4964 36.4115ZM89.9555 28.9617L89.1054 32.8625H90.7738L89.9662 28.9617H89.9555Z"
    />
    <path
        d="M100.901 36.4523L98.6481 31.2892L98.6268 36.4419H96.4802L96.5334 25.8984H98.4037L100.614 31.0719L100.646 25.9191H102.792L102.739 36.4626H100.912L100.901 36.4523Z"
    />
    <path
        d="M116.607 33.7102C116.607 34.1344 116.533 34.5172 116.395 34.869C116.257 35.2208 116.055 35.5209 115.789 35.7796C115.215 36.359 114.461 36.6487 113.547 36.6384C112.633 36.6384 111.889 36.3383 111.315 35.7589C111.05 35.5002 110.858 35.2001 110.72 34.8483C110.582 34.4965 110.518 34.1137 110.518 33.6895L110.561 25.981H112.707L112.665 33.8033C112.665 34.1447 112.75 34.3931 112.931 34.5379C113.111 34.6828 113.313 34.7552 113.558 34.7552C113.802 34.7552 114.004 34.6828 114.185 34.5379C114.365 34.3931 114.45 34.1551 114.45 33.8033L114.493 25.9914H116.639L116.597 33.7102H116.607ZM111.22 25.2257V23.446H113.047V25.2257H111.22ZM114.185 25.2464V23.4667H116.012V25.2464H114.185Z"
    />
    <path
        d="M124.163 36.5765L122.866 32.4688H122.154L122.133 36.5662H119.986L120.039 26.0227H123.111C123.695 26.0434 124.184 26.1158 124.566 26.271C124.949 26.4262 125.257 26.6332 125.48 26.9022C125.704 27.1712 125.863 27.5127 125.948 27.9162C126.033 28.3197 126.075 28.7646 126.075 29.2716C126.075 29.5613 126.054 29.8304 126.022 30.089C125.99 30.3477 125.927 30.596 125.842 30.834C125.757 31.072 125.629 31.2893 125.47 31.4859C125.31 31.6928 125.098 31.8687 124.832 32.0239L126.384 36.5869H124.152L124.163 36.5765ZM123.939 29.2509C123.939 29.1061 123.939 28.9509 123.918 28.7957C123.908 28.6405 123.865 28.4956 123.812 28.3611C123.759 28.2369 123.674 28.1231 123.557 28.0507C123.44 27.9679 123.281 27.9265 123.079 27.9265H122.175L122.165 30.5753H123.068C123.27 30.5753 123.429 30.5443 123.546 30.4512C123.663 30.3684 123.748 30.2649 123.801 30.1304C123.854 30.0063 123.897 29.8614 123.908 29.7062C123.918 29.551 123.929 29.3958 123.929 29.2509H123.939Z"
    />
    <path
        d="M135.257 33.8037C135.257 34.2279 135.183 34.6107 135.045 34.9625C134.906 35.3143 134.704 35.6144 134.439 35.8731C133.865 36.4525 133.11 36.7422 132.197 36.7319C131.283 36.7319 130.539 36.4318 129.965 35.8524C129.699 35.5937 129.508 35.2936 129.37 34.9418C129.232 34.59 129.168 34.2072 129.168 33.783L129.21 26.0745H131.357L131.315 33.8968C131.315 34.2383 131.4 34.4866 131.58 34.6314C131.761 34.7763 131.963 34.8487 132.207 34.8487C132.452 34.8487 132.654 34.7763 132.834 34.6314C133.015 34.4866 133.1 34.2486 133.1 33.8968L133.142 26.0849H135.289L135.246 33.8037H135.257ZM129.869 25.3192V23.5396H131.697V25.3192H129.869ZM132.834 25.3399V23.5602H134.662V25.3399H132.834Z"
    />
    <path
        d="M143.068 36.6696L140.815 31.5065L140.794 36.6592H138.647L138.7 26.1157H140.57L142.781 31.2892L142.813 26.1364H144.959L144.906 36.6799H143.078L143.068 36.6696Z"
    />
    <path
        d="M148.381 36.6906L148.434 26.1575H150.581L150.539 34.8075H153.355V36.7113L148.392 36.6906H148.381Z"
    />
    <path
        d="M156.341 36.7316L156.394 26.1985L161.356 26.2192V28.1127L158.54 28.1023V30.4821L160.942 30.4925V32.3859L158.519 32.3756V34.8485L161.314 34.8588V36.7523L156.351 36.7316H156.341Z"
    />
    <path
        d="M168.604 36.7938L167.307 32.6861H166.595L166.574 36.7835H164.427L164.481 26.24H167.552C168.136 26.2607 168.625 26.3331 169.008 26.4883C169.39 26.6435 169.698 26.8505 169.922 27.1195C170.145 27.3885 170.304 27.7299 170.389 28.1335C170.474 28.537 170.517 28.9819 170.517 29.4889C170.517 29.7786 170.495 30.0477 170.463 30.3063C170.432 30.565 170.368 30.8133 170.283 31.0513C170.198 31.2893 170.07 31.5066 169.911 31.7032C169.751 31.8997 169.539 32.086 169.273 32.2412L170.825 36.8042H168.593L168.604 36.7938ZM168.381 29.4682C168.381 29.3234 168.381 29.1682 168.359 29.013C168.349 28.8578 168.306 28.7129 168.253 28.5784C168.2 28.4542 168.115 28.3508 167.998 28.268C167.881 28.1852 167.722 28.1438 167.52 28.1438H166.617L166.606 30.7926H167.509C167.711 30.7926 167.871 30.7616 167.987 30.6685C168.104 30.5857 168.189 30.4822 168.242 30.3477C168.296 30.2132 168.338 30.0787 168.349 29.9235C168.359 29.7683 168.37 29.6131 168.37 29.4682H168.381Z"
    />
    <path
        d="M173.705 28.2989V26.1985L175.862 26.2088V28.3093H173.705V28.2989ZM173.726 36.8248L173.769 29.1784H175.798L175.756 36.8351H173.726V36.8248Z"
    />
</svg>
    