<svg width="149" height="149" viewBox="0 0 149 149" xmlns="http://www.w3.org/2000/svg">
    <g clip-path="url(#clip0_31_1363)">
        <g clip-path="url(#clip1_31_1363)">
            <path
                d="M77.3439 19.9826C77.3439 25.4219 77.3568 30.8654 77.3396 36.3046C77.3309 38.9292 76.3542 39.8746 73.7049 39.9264C56.2792 40.2502 41.935 53.477 40.1501 70.8652C38.2873 88.983 49.9563 104.891 67.7753 108.53C86.0265 112.255 105.112 99.3607 108.465 81.0055C108.82 79.0543 108.993 77.0599 109.127 75.0785C109.291 72.7301 110.203 71.6768 112.506 71.6725C123.562 71.6509 134.613 71.6509 145.668 71.6725C147.768 71.6768 149.009 72.8337 149.004 74.5993C149.004 76.3994 147.803 77.4441 145.651 77.4527C142.306 77.47 138.965 77.4959 135.62 77.4398C134.129 77.4182 133.506 78.0312 133.385 79.5162C131.302 104.632 113.289 126 88.974 132.246C86.2944 132.933 84.4533 131.517 84.8336 129.061C85.0843 127.433 86.3376 126.954 87.6861 126.609C92.6778 125.331 97.4102 123.405 101.771 120.677C116.625 111.392 125.174 98.0181 127.512 80.6774C127.585 80.1464 127.585 79.6025 127.629 79.0672C127.719 77.9103 127.183 77.3577 126.029 77.3621C122.849 77.3664 119.668 77.375 116.487 77.3534C115.19 77.3448 114.724 78.0096 114.572 79.2269C113.544 87.5239 110.341 94.8841 104.792 101.152C98.0239 108.797 89.5315 113.308 79.3838 114.586C77.8063 114.785 77.3136 115.467 77.3223 116.999C77.3698 126.211 77.3482 135.424 77.3439 144.636C77.3439 145.119 77.3655 145.607 77.3309 146.09C77.1969 147.873 76.0862 149.009 74.5001 149.009C72.9183 149.009 71.7255 147.865 71.6866 146.082C71.6174 142.961 71.665 139.835 71.6606 136.71C71.6606 134.189 71.5007 134.016 68.9595 133.736C43.7847 130.969 23.5715 113.421 17.456 89.0262C17.4042 88.819 17.3177 88.6161 17.2788 88.4045C16.9461 86.6476 17.7326 85.2187 19.2366 84.8475C20.8746 84.4417 22.2792 85.2791 22.7373 87.0965C24.0598 92.3458 25.9441 97.3749 28.7836 101.994C38.2052 117.31 51.9184 125.939 69.7634 128.072C70.9691 128.214 71.6477 127.718 71.652 126.492C71.6693 123.099 71.652 119.706 71.6606 116.309C71.6606 114.992 70.7833 114.75 69.7417 114.616C60.0867 113.369 51.8407 109.268 45.1504 102.205C39.3592 96.0885 35.8801 88.7974 34.6483 80.4529C34.3487 78.4298 33.176 77.4167 31.1304 77.4139C22.2879 77.4139 13.4454 77.4139 4.59854 77.4139C4.27441 77.4139 3.95027 77.4139 3.62613 77.4139C1.25776 77.4009 -0.0171886 76.3692 0.00442062 74.4784C0.0260299 72.6135 1.3053 71.612 3.70392 71.6077C6.72489 71.5991 9.74154 71.6077 12.7625 71.6077C15.4896 71.6077 15.6149 71.4912 15.8656 68.7284C17.093 55.0526 22.4175 43.177 31.7225 33.1145C39.169 25.0636 48.2406 19.5639 58.7556 16.4385C60.9468 15.7867 62.5545 16.4946 63.0645 18.2818C63.5356 19.9438 62.507 21.3727 60.4152 22.0375C39.5623 28.6336 26.882 42.6633 22.2706 63.9842C21.8643 65.8706 21.7347 67.8218 21.497 69.7428C21.3371 71.0249 21.9032 71.6638 23.23 71.6552C26.251 71.6379 29.2676 71.6207 32.2886 71.6682C33.7191 71.6897 34.2551 71.0465 34.4323 69.6651C36.671 52.264 49.092 38.7264 66.2108 34.9793C67.3129 34.7376 68.4322 34.5002 69.5516 34.4268C71.0902 34.3232 71.6952 33.6713 71.6866 32.0827C71.6347 22.7627 71.6606 13.4426 71.6606 4.12258C71.6606 1.38139 72.5639 0.0474826 74.4353 0.0043142C76.3887 -0.043171 77.3482 1.31663 77.3482 4.14416C77.3482 9.42366 77.3482 14.7032 77.3482 19.9826H77.3439Z"
            />
            <path
                d="M108.53 52.9244C102.881 51.4696 99.182 54.2324 95.5473 58.2125C89.7042 64.6101 83.3943 70.5803 77.2788 76.7318C76.8985 77.1117 76.5268 77.5174 76.0903 77.8196C74.8889 78.6528 73.3719 78.5017 72.4211 77.4397C71.4444 76.3476 71.3233 75.1302 72.1402 73.8913C72.4038 73.4941 72.7712 73.1574 73.1083 72.8121C80.732 65.1238 88.3773 57.4571 95.9535 49.7256C96.55 49.117 96.9778 48.0809 96.9994 47.2262C97.1075 43.2979 97.0772 39.3652 97.034 35.4369C97.0167 34.103 97.4662 33.0842 98.4127 32.1475C104.878 25.737 111.313 19.3006 117.749 12.8642C118.769 11.8411 119.862 11.1676 121.344 11.7979C122.805 12.4238 123.125 13.6455 123.108 15.1046C123.069 18.2818 123.086 21.459 123.099 24.6319C123.108 26.4363 123.587 26.9111 125.416 26.9198C128.54 26.9327 131.669 26.9543 134.794 26.9111C136.315 26.8896 137.62 27.209 138.204 28.7674C138.744 30.2222 138.083 31.2625 137.015 32.3072C130.593 38.6055 124.218 44.9512 117.874 51.3272C116.772 52.4366 115.622 53.0323 114.032 52.9417C112.204 52.8424 110.367 52.9201 108.534 52.9201L108.53 52.9244ZM102.631 40.5265C102.631 42.5252 102.678 43.872 102.618 45.2145C102.549 46.6952 103.27 47.2521 104.658 47.2435C107.35 47.2262 110.047 47.2694 112.74 47.2132C113.275 47.2003 113.954 47.0147 114.317 46.6564C118.155 42.8834 121.967 39.076 125.722 35.2211C126.129 34.8023 126.505 33.8224 126.289 33.4555C125.999 32.9547 125.148 32.5964 124.499 32.523C123.22 32.3806 121.919 32.4971 120.627 32.4756C118.328 32.4453 117.252 31.3877 117.217 29.1257C117.2 27.9429 117.321 26.7428 117.174 25.5772C117.083 24.865 116.746 23.8289 116.245 23.626C115.743 23.4231 114.723 23.9066 114.226 24.3944C111.486 27.0579 108.967 29.9632 106.114 32.4971C103.422 34.8887 101.723 37.4572 102.635 40.5308L102.631 40.5265Z"
            />
            <path
                d="M74.4353 98.4455C61.8501 98.4455 51.2831 88.534 50.583 76.0713C49.8656 63.2762 59.11 52.2553 71.7428 50.8437C72.2787 50.7833 72.8103 50.697 73.3505 50.6667C75.5892 50.5372 76.9765 51.5172 77.0889 53.2871C77.2013 55.0699 75.9047 56.0412 73.7265 56.4038C71.2587 56.8139 68.6915 57.237 66.4528 58.273C58.7686 61.8258 54.7838 70.5458 56.7892 78.7909C58.7859 86.9886 66.2195 92.7775 74.6211 92.6739C84.6132 92.5487 91.8653 85.4259 92.5827 74.9792C92.6735 73.6669 92.9285 72.5229 94.1732 71.8451C96.2174 70.7314 98.5037 72.2293 98.4172 74.7158C98.106 83.6819 94.1688 90.5889 86.4543 95.2381C82.7246 97.4872 78.8047 98.4498 74.4353 98.4498V98.4455Z"
            />
        </g>
    </g>
    <defs>
        <clipPath id="clip0_31_1363">
            <rect width="149" height="149" fill="white" />
        </clipPath>
        <clipPath id="clip1_31_1363">
            <rect width="149" height="149" fill="white" />
        </clipPath>
    </defs>
</svg>
    