<svg width="100" height="100" viewBox="0 0 100 100" xmlns="http://www.w3.org/2000/svg">
    <g clip-path="url(#clip0_12_1466)">
        <path
            d="M99.9575 47.5215C99.9575 54.0425 99.9575 60.5635 99.9714 67.0845C99.9714 67.9381 99.6944 68.4699 98.9604 68.8897C95.7615 70.7229 92.5902 72.584 89.419 74.4871C88.685 74.9209 88.1034 74.9349 87.3694 74.4871C85.3753 73.2837 83.3396 72.1362 81.3177 70.9747C80.293 70.387 78.5619 71.3946 78.5619 72.57C78.5619 74.9629 78.5342 77.3558 78.5619 79.7347C78.5619 80.5464 78.2711 81.0641 77.5787 81.4699C74.3521 83.3311 71.1393 85.2062 67.9542 87.1094C67.2479 87.5292 66.6524 87.5152 65.9739 87.1094C63.9382 85.9059 61.8886 84.7305 59.8391 83.527C58.9805 83.0232 57.1802 84.0028 57.1664 85.0103C57.1525 87.4312 57.1387 89.8521 57.1664 92.287C57.1802 93.0986 56.931 93.6164 56.2247 94.0362C52.9703 95.9113 49.7437 97.8145 46.5171 99.7316C45.8939 100.095 45.3815 100.095 44.7445 99.7316C30.2592 91.2095 15.7739 82.6874 1.26092 74.1933C0.374636 73.6615 0.000732422 73.0878 0.000732422 72.0103C0.028429 58.9402 0.028429 45.8562 0.000732422 32.7862C0.000732422 31.7926 0.346939 31.2469 1.16399 30.7571C18.4466 20.6537 35.7293 10.5224 52.9842 0.376993C53.8289 -0.112783 54.4521 -0.126777 55.2969 0.376993C69.6714 8.88511 84.0597 17.3652 98.448 25.8454C99.459 26.4331 100.027 27.0908 99.9991 28.4762C99.8883 34.8293 99.9575 41.1824 99.9575 47.5215ZM35.4384 13.0412C35.9093 13.3211 36.2139 13.517 36.5325 13.7129C42.3903 17.1553 48.2481 20.5838 54.1059 24.0262C61.7778 28.5181 69.4359 33.0241 77.1079 37.502C77.4679 37.7119 78.1188 37.8379 78.4373 37.656C81.2347 36.0887 84.0043 34.4514 86.774 32.8282C86.8848 32.7582 87.0371 32.7582 87.314 32.6882C86.7463 32.3244 86.497 32.1565 86.2339 32.0025C81.0546 28.9519 75.8615 25.9013 70.6823 22.8367C62.3595 17.925 54.0228 13.0132 45.6862 8.12945C45.34 7.91955 44.7445 7.77961 44.4398 7.93354C41.4486 9.57079 38.4989 11.292 35.4246 13.0412H35.4384ZM23.9998 19.7581C25.0245 20.3599 25.9108 20.9056 26.811 21.4374C39.7176 29.0359 52.6103 36.6344 65.503 44.2609C66.057 44.5968 66.4586 44.6528 67.0402 44.2889C68.6881 43.2814 70.3776 42.3578 72.0533 41.4062C73.2442 40.7206 74.4352 40.0349 75.7369 39.2932C75.3353 39.0413 75.0583 38.8594 74.7675 38.6915C61.7363 31.037 48.6774 23.4385 35.6877 15.7C33.9013 14.6365 32.6134 14.4406 30.8685 15.686C28.7359 17.1973 26.3678 18.3728 23.9859 19.7721L23.9998 19.7581ZM12.6027 26.4611C12.9489 26.685 13.1981 26.8529 13.4474 26.9928C26.3401 34.5494 39.219 42.1059 52.1118 49.6625C53.095 50.2362 54.1059 51.2298 55.103 51.2298C56.1001 51.2298 57.0971 50.2222 58.0942 49.6485C60.1576 48.445 62.2071 47.2416 64.3398 45.9962C63.9936 45.7862 63.772 45.6323 63.5366 45.4924C50.2699 37.7119 36.9894 29.9455 23.7505 22.1091C22.3657 21.2834 21.3686 21.1575 19.9838 22.0811C17.6296 23.6484 15.123 24.9778 12.6027 26.4611ZM52.8457 52.7551C52.7072 52.6011 52.6795 52.5452 52.6241 52.5032C38.7482 44.3589 24.8722 36.2146 10.9824 28.0983C10.6916 27.9304 10.1377 27.9724 9.81915 28.1543C7.86655 29.2318 5.94164 30.3653 4.01673 31.4848C3.80901 31.6107 3.61513 31.7786 3.35201 31.9606C3.72592 32.1985 4.01673 32.3804 4.29369 32.5483C11.9241 37.0263 19.5683 41.5182 27.1987 45.9962C33.1119 49.4666 39.0251 52.937 44.9661 56.3934C45.3123 56.5893 45.9077 56.7153 46.2124 56.5473C48.442 55.3439 50.6161 54.0425 52.8457 52.7551ZM96.5231 27.1188C96.1354 26.8809 95.8307 26.685 95.5122 26.4891C82.481 18.8486 69.4221 11.236 56.4463 3.51156C54.646 2.43405 53.3166 2.23814 51.6409 3.53955C50.2699 4.60306 48.6774 5.34472 47.071 6.31028C47.4726 6.57616 47.708 6.74408 47.9711 6.89801C55.3384 11.236 62.7057 15.5741 70.073 19.9121C76.2493 23.5504 82.4118 27.2027 88.6019 30.8131C88.9343 31.009 89.5298 31.107 89.8483 30.939C92.0778 29.7356 94.252 28.4342 96.537 27.1188H96.5231ZM89.3774 58.5624C92.1471 56.9392 94.7229 55.4558 97.2571 53.9165C97.4648 53.7906 97.5479 53.3428 97.5479 53.0349C97.5479 50.4041 97.4925 47.7733 97.4648 45.1565C97.4648 44.191 97.4648 43.2114 97.4648 42.036C96.9663 42.3158 96.7309 42.4278 96.5093 42.5677C80.113 52.1673 63.7166 61.7809 47.3203 71.3666C46.7802 71.6744 46.5863 72.0103 46.5863 72.64C46.614 75.7466 46.5863 78.8531 46.6001 81.9597C46.6001 82.2116 46.6417 82.4635 46.6832 82.8833C49.3421 81.316 51.8902 79.8467 54.3829 78.3074C54.6321 78.1535 54.7845 77.6357 54.7845 77.2859C54.826 75.0329 54.8399 72.7799 54.7845 70.5269C54.7568 69.5894 55.103 69.0296 55.9062 68.5678C59.1605 66.7067 62.401 64.7896 65.6415 62.9004C67.2341 61.9769 67.9265 62.3967 67.9265 64.2578C67.9265 66.3568 67.9265 68.4419 67.9265 70.7229C70.6961 69.1136 73.2996 67.6303 75.8754 66.091C76.097 65.951 76.2077 65.4613 76.2077 65.1394C76.2354 62.8165 76.2493 60.4935 76.2077 58.1706C76.1939 57.331 76.4986 56.8832 77.2048 56.4774C80.5699 54.6022 83.8935 52.6431 87.2587 50.768C87.7018 50.5161 88.4358 50.2782 88.7681 50.4881C89.1282 50.712 89.322 51.4537 89.3359 51.9714C89.3913 54.0845 89.3636 56.1975 89.3636 58.5904L89.3774 58.5624ZM68.148 84.5625C70.9177 82.9673 73.4658 81.4979 75.9862 79.9866C76.2493 79.8327 76.4155 79.3289 76.4293 78.9931C76.4709 76.5302 76.4293 74.0813 76.4709 71.6184C76.4709 71.1846 76.734 70.5549 77.0802 70.359C80.6115 68.232 84.1843 66.1609 87.7572 64.1039C88.5327 63.6561 89.239 64.0759 89.3636 64.9715C89.4051 65.3073 89.3774 65.6572 89.3774 65.993C89.3774 67.9941 89.3774 69.9952 89.3774 72.1642C92.1055 70.5829 94.6813 69.1136 97.2156 67.5743C97.4371 67.4344 97.5479 66.9446 97.5618 66.6087C97.5895 63.768 97.5756 60.9413 97.5756 58.1006C97.5756 57.5689 97.5756 57.0511 97.5756 56.3374C97.0078 56.6593 96.6339 56.8552 96.26 57.0791C79.9883 66.4968 63.7166 75.9145 47.431 85.3042C46.9464 85.5841 46.794 85.8919 46.794 86.4237C46.8217 89.5583 46.794 92.7068 46.794 95.8414C46.794 96.0653 46.8217 96.2892 46.8494 96.5551C47.0156 96.5131 47.1125 96.5131 47.1956 96.4711C49.6191 95.0717 52.0702 93.6724 54.466 92.217C54.7568 92.0491 54.9783 91.5174 54.9783 91.1535C55.0199 88.9006 55.0337 86.6476 54.9783 84.3946C54.9645 83.471 55.2553 82.8833 56.0724 82.4215C59.3959 80.5324 62.7057 78.6292 65.9739 76.6422C67.2895 75.8445 68.2311 76.4183 68.148 77.9296C68.0234 80.0566 68.1203 82.2116 68.1203 84.5765L68.148 84.5625ZM97.5895 29.0779C96.3016 29.8195 95.166 30.4632 94.0443 31.107C78.4373 40.0209 62.8165 48.9348 47.2233 57.8767C46.9187 58.0586 46.6555 58.6044 46.6417 58.9822C46.6001 62.0888 46.614 65.1954 46.614 68.302C46.614 68.5538 46.6694 68.7917 46.6971 69.1556C49.2313 67.6862 51.6409 66.2729 54.0782 64.8875C54.6183 64.5797 54.826 64.2298 54.8122 63.6001C54.7706 61.2772 54.7568 58.9542 54.8399 56.6453C54.8537 56.1275 55.1999 55.4138 55.6154 55.162C59.1328 53.0629 62.6918 51.0618 66.237 49.0328C67.2064 48.487 67.8988 48.8788 67.9126 50.0123C67.9403 52.0274 67.9126 54.0425 67.9126 56.0576C67.9126 56.3374 67.9542 56.6313 67.9957 57.0791C70.6961 55.4978 73.2581 54.0145 75.7923 52.4752C76.0416 52.3213 76.1939 51.8035 76.1939 51.4537C76.2354 49.1027 76.2354 46.7378 76.1939 44.3869C76.1939 43.6872 76.4293 43.2534 77.0386 42.9176C80.5145 40.9585 83.9628 38.9574 87.4248 36.9843C88.6573 36.2846 89.3359 36.6764 89.3359 38.1317C89.3359 40.0489 89.3359 41.952 89.3359 43.8691C89.3359 44.149 89.3774 44.4429 89.4051 44.7227C89.5575 44.6947 89.6406 44.6947 89.6821 44.6668C91.2608 43.7572 92.8534 42.8476 94.4182 41.924C95.443 41.3223 96.8278 40.9305 97.3402 40.0209C97.8526 39.1253 97.5064 37.6979 97.5202 36.5085C97.5202 34.0876 97.5202 31.6807 97.5202 29.0779H97.5895ZM2.18876 33.8777C2.18876 37.558 2.17491 41.0424 2.21645 44.5128C2.21645 44.8067 2.61805 45.1705 2.92272 45.3524C16.5079 53.3428 30.1069 61.3052 43.692 69.2815C43.9551 69.4354 44.2321 69.5754 44.6337 69.7853C44.6337 66.3009 44.606 63.0264 44.6475 59.7519C44.6475 58.9962 44.3983 58.6044 43.7613 58.2406C32.281 51.5376 20.8285 44.8067 9.36216 38.0758C7.03565 36.7044 4.70914 35.347 2.17491 33.8637L2.18876 33.8777ZM2.24415 61.2352C2.21645 61.599 2.18876 61.8509 2.18876 62.1168C2.18876 65.1954 2.21645 68.26 2.17491 71.3386C2.17491 72.0243 2.41033 72.3601 2.96426 72.696C16.5494 80.6863 30.1207 88.6767 43.692 96.681C43.8859 96.7929 44.0936 96.8909 44.4398 97.0728V95.9533C44.4398 93.0846 44.3983 90.216 44.4675 87.3473C44.4952 86.3677 44.1905 85.836 43.3458 85.3462C29.9268 77.4818 16.5217 69.5894 3.11659 61.697C2.86732 61.543 2.59036 61.4311 2.258 61.2492L2.24415 61.2352ZM44.6475 83.2611C44.6475 79.7907 44.6198 76.5442 44.6752 73.2977C44.6752 72.4721 44.4121 72.0383 43.7197 71.6324C30.3423 63.88 16.9926 56.0995 3.62898 48.3331C3.19968 48.0812 2.77039 47.8573 2.20261 47.5354C2.20261 51.1878 2.18876 54.6722 2.2303 58.1426C2.2303 58.4225 2.64575 58.7863 2.96426 58.9682C14.4168 65.6572 25.8693 72.3181 37.3218 78.9931C39.7037 80.3784 42.0995 81.7638 44.6475 83.2471V83.2611ZM85.9569 60.4655C84.1705 59.402 82.5641 58.4225 80.9438 57.4709C80.3207 57.1071 78.3958 57.9607 78.3681 58.6744C78.2988 60.7314 78.3404 62.7885 78.3404 65.0275C80.9438 63.4742 83.3534 62.0188 85.9431 60.4655H85.9569ZM85.9569 46.8358C84.212 45.7863 82.6195 44.8347 81.0269 43.8831C80.3899 43.5053 78.4096 44.2749 78.3819 44.9886C78.2988 47.0457 78.3542 49.1167 78.3542 51.3837C80.9715 49.8164 83.3811 48.3611 85.9569 46.8218V46.8358ZM57.1802 77.4118C59.8114 75.8305 62.2487 74.3612 64.7829 72.8359C62.9965 71.7724 61.3485 70.7648 59.6868 69.7993C58.9805 69.3935 57.1941 70.443 57.1802 71.2686C57.1525 73.2417 57.1802 75.2148 57.1802 77.4118ZM57.1802 63.768C59.756 62.2147 62.1933 60.7594 64.7829 59.2061C62.9272 58.1006 61.2378 57.0651 59.5206 56.0715C59.022 55.7777 57.1941 56.8972 57.1941 57.5129C57.1664 59.542 57.1941 61.571 57.1941 63.768H57.1802ZM65.8215 65.7691C64.2844 66.6927 62.8857 67.5183 61.3624 68.4419C62.9134 69.3655 64.3121 70.1911 65.8215 71.0867V65.7691ZM87.1617 66.8466C85.583 67.7422 84.1289 68.5678 82.5364 69.4774C84.1705 70.401 85.6246 71.2266 87.1617 72.1082V66.8466ZM65.8215 52.1393C64.2567 53.0769 62.858 53.9165 61.3624 54.8121C62.8996 55.7217 64.2982 56.5613 65.8215 57.4569V52.1393ZM65.8215 79.203C64.2705 80.1406 62.8719 80.9662 61.3624 81.8758C62.8996 82.7853 64.2982 83.611 65.8215 84.5206V79.203ZM87.1756 53.2029C85.6523 54.1124 84.2536 54.9381 82.7303 55.8477C84.2674 56.7572 85.6661 57.5969 87.1756 58.4924V53.2029ZM87.134 45.0306V39.797C85.6384 40.6926 84.2674 41.5182 82.758 42.4138C84.2813 43.3234 85.6661 44.149 87.134 45.0166V45.0306Z"
        />
        <path
            d="M41.1716 61.5711C41.1716 62.1868 41.1716 62.8025 41.1716 63.4043C41.1439 64.5237 40.4931 64.9575 39.5098 64.4398C38.2912 63.7961 37.1141 63.0544 35.9093 62.3687C32.7934 60.5496 29.6776 58.7024 26.5479 56.9252C25.8001 56.5054 25.4954 55.9876 25.5508 55.134C25.62 54.1825 25.5508 53.2309 25.5646 52.2793C25.5923 51.0619 26.4232 50.5301 27.448 51.1179C31.7964 53.6367 36.1447 56.1696 40.4654 58.7444C40.8116 58.9543 41.047 59.514 41.1439 59.9478C41.2547 60.4656 41.1716 61.0253 41.1716 61.5711ZM27.8358 53.6647C27.5449 54.7562 27.8081 55.3439 28.7359 55.8337C31.5748 57.387 34.3583 59.0522 37.1556 60.6755C37.668 60.9694 38.1804 61.2632 38.7066 61.5571C38.8036 61.5011 38.9005 61.4451 39.0113 61.3892C38.8451 60.8714 38.8313 60.0878 38.4851 59.8779C34.9953 57.7648 31.464 55.7497 27.8634 53.6647H27.8358Z"
        />
        <path
            d="M5.66467 42.3439C5.66467 41.8261 5.66467 41.3223 5.66467 40.8046C5.69236 39.4332 6.46787 38.9714 7.64497 39.6571C11.4948 41.8961 15.3031 44.219 19.2221 46.346C20.8008 47.1997 21.6179 48.1652 21.2855 49.9984C21.2024 50.4882 21.2855 51.0199 21.2717 51.5237C21.244 52.923 20.4131 53.4128 19.1944 52.7131C15.4277 50.5301 11.6748 48.3191 7.90809 46.1221C7.85269 46.0942 7.78345 46.0522 7.72806 46.0242C6.34323 45.2126 5.65082 43.9858 5.65082 42.3439H5.66467ZM18.959 50.0264C19.3883 48.8509 18.9175 48.3471 18.0589 47.8714C14.9707 46.1501 11.9241 44.331 8.84977 42.5678C8.6005 42.4278 8.33738 42.3019 8.06042 42.162C7.74191 43.2115 8.03272 43.7992 8.96055 44.261C10.4285 45.0027 11.841 45.8843 13.2674 46.7239C15.1507 47.8154 17.0341 48.9209 18.959 50.0264Z"
        />
        <path
            d="M41.1716 88.6487C41.1716 89.2224 41.1716 89.8101 41.1716 90.3839C41.1578 91.6433 40.5208 92.0631 39.4129 91.4614C38.0142 90.7057 36.671 89.8801 35.3 89.0825C32.3503 87.3613 29.4145 85.6261 26.4648 83.9328C25.8416 83.569 25.5231 83.1632 25.5646 82.3935C25.62 81.344 25.5646 80.2805 25.5923 79.231C25.62 78.1535 26.4786 77.6217 27.3926 78.1395C31.8102 80.6163 36.2001 83.1212 40.59 85.654C40.8947 85.822 41.1162 86.3257 41.1716 86.7176C41.2686 87.3473 41.1993 88.005 41.1993 88.6627L41.1716 88.6487ZM27.8358 80.9382C27.5449 81.9737 27.7527 82.5615 28.6805 83.0792C31.5748 84.6745 34.4137 86.3677 37.2664 88.033C37.7511 88.3128 38.2358 88.5647 38.7482 88.8446C39.0667 87.7811 38.7759 87.2073 37.8619 86.7176C35.5492 85.4721 33.292 84.1007 31.0209 82.7853C29.9822 82.1836 28.9298 81.5819 27.8358 80.9522V80.9382Z"
        />
        <path
            d="M5.6647 69.2115C5.6647 68.6937 5.6647 68.1899 5.6647 67.6722C5.6924 66.3008 6.4679 65.825 7.63115 66.4967C11.1902 68.5538 14.6661 70.8067 18.3359 72.6539C20.6762 73.8434 21.5764 75.2987 21.3548 77.9575C21.2025 79.7627 20.2469 80.2664 18.8344 79.3988C14.9569 77.0059 10.9963 74.739 7.02183 72.5C5.96936 71.9122 5.41543 71.2406 5.637 70.0231C5.67855 69.7572 5.637 69.4774 5.637 69.2115H5.6647ZM7.82503 69.1415C7.645 70.1211 7.70039 70.7508 8.61438 71.2545C11.7441 72.9758 14.8184 74.8089 17.9204 76.6001C18.1974 76.754 18.4882 76.908 18.779 77.0759C19.1252 75.9844 18.779 75.3967 17.8789 74.9349C16.2863 74.1092 14.7769 73.1577 13.2259 72.2621C11.4533 71.2406 9.6807 70.219 7.82503 69.1415Z"
        />
        <path
            d="M41.1717 75.2428C41.1717 75.8865 41.1994 76.5442 41.1717 77.1879C41.1301 78.0835 40.5762 78.4754 39.7453 78.1815C39.4268 78.0695 39.136 77.8876 38.8452 77.7197C34.7876 75.3548 30.7439 72.9619 26.6725 70.6249C25.8693 70.1632 25.5093 69.6034 25.5647 68.6658C25.6339 67.6443 25.5647 66.6228 25.5924 65.6012C25.6201 64.5097 26.4648 63.978 27.4065 64.5237C31.8241 67.0706 36.2278 69.6454 40.6039 72.2482C40.9086 72.4301 41.1163 72.9339 41.1717 73.3117C41.2686 73.9414 41.1994 74.5991 41.1994 75.2568L41.1717 75.2428ZM38.7621 75.2568C38.9975 74.2353 38.8452 73.6336 37.945 73.1298C34.8707 71.4226 31.8518 69.6314 28.819 67.8682C28.5144 67.6863 28.1958 67.5184 27.8773 67.3504C27.7665 67.4204 27.6696 67.4904 27.5588 67.5603C27.7804 68.0921 27.8496 68.8757 28.2374 69.1136C31.6718 71.1987 35.1615 73.1858 38.7621 75.2708V75.2568Z"
        />
        <path
            d="M21.2716 63.67C21.2716 64.1878 21.2716 64.6915 21.2716 65.2093C21.2439 66.5527 20.3992 67.0565 19.2636 66.3848C16.1062 64.5516 12.9627 62.7044 9.80527 60.8573C8.7805 60.2556 7.76958 59.6538 6.74481 59.0661C6.01085 58.6463 5.5954 58.0726 5.65079 57.177C5.70619 56.3653 5.65079 55.5397 5.65079 54.7281C5.65079 52.9509 6.3709 52.5451 7.92191 53.4547C11.1624 55.3438 14.4029 57.2329 17.6434 59.1221C18.4327 59.5839 19.1944 60.1016 20.0114 60.4795C21.0085 60.9412 21.424 61.6549 21.2716 62.7464C21.2301 63.0403 21.2716 63.3621 21.2716 63.67ZM19.0144 63.698C19.2498 62.6904 19.1252 62.0747 18.1696 61.557C15.0399 59.8358 11.9656 57.9886 8.87744 56.1974C8.61432 56.0435 8.32351 55.9175 8.06039 55.7776C7.65879 56.9671 8.18503 57.5128 9.08516 57.9606C10.3177 58.5903 11.4948 59.318 12.6857 60.0177C14.7768 61.2351 16.8679 62.4386 19.0144 63.698Z"
        />
    </g>
    <defs>
        <clipPath id="clip0_12_1466">
            <rect width="100" height="100" />
        </clipPath>
    </defs>
</svg>
    