<svg width="100" height="100" viewBox="0 0 100 100" xmlns="http://www.w3.org/2000/svg">
    <path
        d="M92.038 54.4801V57.6093C93.375 57.6093 94.6299 57.5976 95.8849 57.6093C98.3478 57.6446 99.9546 59.174 99.9663 61.6444C100.002 68.2676 100.002 74.8791 99.9663 81.5023C99.9546 83.9845 98.383 85.5021 95.8849 85.5021C65.3209 85.5021 34.7451 85.5021 4.18115 85.5021C1.54227 85.5021 0.0293208 83.9728 0.0293208 81.2788C0.0175925 74.7967 0.00586416 68.3265 0.0293208 61.8444C0.0293208 59.1269 1.60092 57.6211 4.33361 57.5976C5.50645 57.5976 6.66755 57.5976 7.93421 57.5976V54.4801C6.64409 54.4801 5.40089 54.4918 4.14596 54.4801C1.61264 54.4448 0.0293208 52.9037 0.0175925 50.3391C-0.00586416 43.7629 -0.00586416 37.1985 0.0175925 30.6224C0.0175925 28.1166 1.57746 26.6226 4.06386 26.5873C5.31879 26.5755 6.57372 26.5873 8.02803 26.5873C8.02803 25.9755 8.02803 25.4697 8.02803 24.9756C8.02803 19.717 8.02803 14.4584 8.02803 9.19985C8.03976 6.72938 8.76692 6 11.2064 6C14.0095 6 16.8243 6 19.6273 6C22.1372 6 22.8644 6.72938 22.8644 9.29396C22.8761 14.4584 22.8644 19.6229 22.8644 24.7873C22.8644 25.3403 22.8644 25.8932 22.8644 26.5167H77.0257C77.0492 25.9285 77.0961 25.3873 77.0961 24.8462C77.0961 19.6817 77.0961 14.5172 77.0961 9.35278C77.0961 6.70585 77.8115 6.01176 80.4269 6C83.1831 6 85.951 6 88.7071 6C91.2287 6 91.9324 6.71761 91.9324 9.2822C91.9324 14.4937 91.9324 19.7052 91.9324 24.9167C91.9324 25.4226 91.9324 25.9285 91.9324 26.5873C93.3867 26.5873 94.6886 26.5755 95.9787 26.5873C98.2657 26.6226 99.8959 28.0343 99.9194 30.2812C99.9898 37.0926 99.978 43.8923 99.9194 50.7038C99.8959 52.9272 98.2305 54.4212 96.0139 54.4683C94.712 54.4918 93.4102 54.4683 92.0145 54.4683L92.038 54.4801ZM49.8629 83.2434C64.9338 83.2434 80.0047 83.2434 95.0756 83.2434C97.3274 83.2434 97.6324 82.9493 97.6324 80.7729C97.6324 74.6203 97.6324 68.4794 97.6324 62.3267C97.6324 60.2563 97.2571 59.8916 95.146 59.8916C65.0511 59.8916 34.9562 59.8916 4.86139 59.8916C2.75029 59.8916 2.37498 60.2563 2.37498 62.3267C2.37498 68.4794 2.37498 74.6203 2.37498 80.7729C2.37498 82.9611 2.67992 83.2434 4.93176 83.2434C19.9088 83.2434 34.8859 83.2434 49.8629 83.2434ZM49.992 28.8577C34.968 28.8577 19.944 28.8577 4.92003 28.8577C2.63301 28.8577 2.37498 29.1166 2.37498 31.4694C2.37498 37.5279 2.37498 43.5747 2.37498 49.6332C2.37498 51.8567 2.69165 52.186 4.87312 52.186C34.968 52.186 65.0628 52.186 95.1577 52.186C97.2805 52.186 97.6324 51.8449 97.6324 49.7626C97.6324 43.61 97.6324 37.4691 97.6324 31.3164C97.6324 29.1636 97.3274 28.8577 95.2046 28.8577C80.1337 28.8577 65.0628 28.8577 49.992 28.8577ZM10.4323 26.4931H20.4601V8.36459H10.4323V26.4931ZM89.5633 26.5284V8.36459H79.5825V26.5284H89.5633ZM77.0257 54.5859H23.0051V57.5387H77.0257V54.5859ZM20.4718 54.5742H10.4558V57.5152H20.4718V54.5742ZM79.5708 54.5389V57.527H89.5398V54.5389H79.5708Z"
        fill="black" />
    <path
        d="M49.91 93.9841C34.0416 93.9841 18.1732 93.9841 2.31647 93.9841C0.111543 93.9841 0.0294452 93.89 0.0177169 91.6665C0.0177169 90.7725 0.0411735 89.8784 0.0177169 88.9961C-0.0291964 87.7844 0.580676 87.2903 1.71832 87.2903C2.04672 87.2903 2.37511 87.2903 2.7035 87.2903C34.2527 87.2903 65.7901 87.2903 97.3393 87.2903C99.8492 87.2903 99.9899 87.4197 99.9899 89.8784C99.9899 94.537 100.412 93.9723 95.8264 93.9841C80.5209 93.9841 65.2154 93.9841 49.91 93.9841ZM97.5621 89.7372H2.45721V91.6195H97.5621V89.7372Z"
        fill="black" />
    <path
        d="M15.4286 69.4558C16.578 69.4558 17.5983 70.4675 17.5866 71.5969C17.5866 72.7145 16.6718 73.6321 15.5342 73.6674C14.3144 73.7144 13.341 72.8204 13.3175 71.6322C13.2823 70.4793 14.2792 69.4676 15.4286 69.4558Z"
        fill="black" />
    <path
        d="M85.5053 73.6675C84.2856 73.6675 83.406 72.7381 83.4294 71.5146C83.4529 70.3735 84.3442 69.4677 85.4701 69.4442C86.643 69.4206 87.6164 70.3735 87.6282 71.5499C87.6282 72.7381 86.7016 73.6675 85.4936 73.6557L85.5053 73.6675Z"
        fill="black" />
    <path
        d="M17.5866 40.4455C17.6335 41.5748 16.6249 42.6218 15.4755 42.6454C14.3261 42.6689 13.3058 41.6572 13.3058 40.5161C13.3058 39.3867 14.1971 38.4809 15.3348 38.4338C16.5545 38.3867 17.5397 39.2691 17.5749 40.4572L17.5866 40.4455Z"
        fill="black" />
    <path
        d="M85.5053 38.422C86.7133 38.422 87.6516 39.3396 87.6399 40.5278C87.6399 41.7042 86.643 42.6689 85.4819 42.6453C84.3559 42.6218 83.4646 41.716 83.4411 40.5748C83.4059 39.3514 84.2973 38.4338 85.5053 38.422Z"
        fill="black" />
</svg>
    